<?xml version="1.0" encoding="UTF-8"?>
<svg width="85mm" height="42mm" version="1.1" viewBox="0 0 85 42" xml:space="preserve" xmlns="http://www.w3.org/2000/svg"><g transform="matrix(.035278 0 0 -.035278 -1.0583 380.89)" fill="#fff"><path d="m1702 10780c-200-54-363-208-423-400-28-90-28-260 0-350 80-257 343-438 604-416 490 41 726 591 418 973-58 72-175 152-267 182-99 33-236 37-332 11zm260-31c157-33 299-140 373-280 127-242 68-532-143-699-216-171-521-160-723 28-98 90-163 217-174 340l-5 57 27-73 28-73 39 3 40 3 37 95c21 52 38 101 38 108 1 9-10 12-36 10-37-3-38-4-58-72l-21-70-20 70c-17 61-23 69-46 72-25 3-27 6-21 35 39 211 210 393 416 443 66 16 181 17 249 3z"/><path d="m1555 10244c-41-44-38-126 6-167 27-25 36-28 92-25 59 3 62 4 65 31s2 27-36 21c-39-6-82 7-82 26 0 6 32 10 71 10h72l-6 41c-8 63-39 89-104 89-45 0-58-4-78-26zm109-39c4-12-3-15-29-15s-33 3-29 15c4 8 16 15 29 15s25-7 29-15z"/><path d="m1780 10160v-110h79l3 73 3 72 33 3c17 2 32 9 32 15 0 7 3 22 6 35 6 19 2 22-22 22-15 0-36-7-46-16-16-16-18-16-24 0-4 10-18 16-35 16h-29z"/><path d="m1986 10251c-11-12-16-31-14-53 3-29 9-36 52-56 36-18 46-26 37-35-8-8-22-8-52 0l-40 11 3-32c3-31 4-31 65-34 52-2 65 0 83 18 31 31 24 79-16 105-73 47-73 46-28 41 36-3 43-1 52 19 13 29 1 35-72 35-39 0-57-5-70-19z"/><path d="m2205 10246c-49-49-40-152 15-181 29-15 105-20 134-9 9 3 16 17 16 30 0 22-3 23-45 17-29-4-50-1-60 7-28 23-15 30 55 30 76 0 77 0 60 62-14 49-43 68-103 68-37 0-53-5-72-24zm103-43c2-9-7-13-27-13-30 0-39 9-24 24 11 10 46 3 51-11z"/><path d="m913 10344c-9-24 10-49 37-49s46 25 37 49c-4 10-18 16-37 16s-33-6-37-16z"/><path d="m30 10196v-146h70l1 93 1 92 26-92 27-93h37c36 0 37 1 53 58 9 31 22 75 30 97 13 39 13 38 14-57l1-98h71l-3 143-3 142-47 3c-55 4-54 4-88-116-13-45-25-80-27-78-3 3-17 47-32 98l-27 93-104 6z"/><path d="m437 10245c-28-29-38-75-25-122 21-75 122-100 179-44 24 25 29 38 29 79 0 40-6 57-26 81-23 27-32 31-79 31-43 0-57-5-78-25zm107-56c19-55-21-114-50-74-27 36-9 109 24 103 9-2 21-15 26-29z"/><path d="m684 10160 41-110 39 2 40 3 37 95c21 52 38 101 38 108 1 9-10 12-36 10-37-3-38-4-58-72l-21-70-20 70-20 69-82 6z"/><path d="m910 10160v-110h80v220h-80z"/><path d="m1065 10246c-49-49-40-152 15-181 29-15 105-20 134-9 9 3 16 17 16 30 0 22-3 23-45 17-29-4-50-1-60 7-28 23-15 30 55 30 76 0 77 0 60 62-14 49-43 68-103 68-37 0-53-5-72-24zm103-43c2-9-7-13-27-13-30 0-39 9-24 24 11 10 46 3 51-11z"/></g></svg>
